<svg id="Logo-Dark_svg__Layer_1" data-name="Layer 1" xmlns="http://www.w3.org/2000/svg" width="132" height="26" viewBox="0 0 2264 444.7" role="img" aria-label="telnyx logo"><defs><style>.Logo-Dark_svg__cls-1{fill:#31b886}.Logo-Dark_svg__cls-2{fill:#162836}</style></defs><path class="Logo-Dark_svg__cls-1" d="M251.1 0L132.9 207.5h236.3L251.1 0zM103.4 281.7L0 444.7h206.8v-163H103.4zM295.4 281.7h103.4l103.3 163H295.4v-163z"></path><path class="Logo-Dark_svg__cls-2" d="M663.6 161.5v217.4h-59.9V161.5h-76v-52h211.9v52h-76zM1024.9 109.5V163H891.3v55.5h120.2v51.3H891.3v55.9h137.9v53.2H831.4V109.5h193.5zM1120.9 378.9V109.5h59.9v215.8h114.4v53.6h-174.3zM1574.8 109.5h59.9v269.4h-59.9l-127.9-168.8v168.8H1387V109.5h56.1l131.7 173.4V109.5zM1864.3 378.9h-59.9V272.5l-92.9-163h64.9l58 100.2 57.9-100.2h64.9l-92.9 163v106.4zM2184.9 109.5h72.2l-83.7 129.9 90.6 139.5h-72.9l-57.2-88.7-56.9 88.7h-72.2l90.3-138-84.1-131.4h71.8l51.1 79.7 51-79.7z"></path></svg>